<svg xmlns="http://www.w3.org/2000/svg" viewBox="0 0 283.47 95.7">
  <title>balbriggan-logo</title>
  <g id="Layer_2" data-name="Layer 2">
    <g id="Layer_1-2" data-name="Layer 1">
      <g>
        <path d="M70.18,51.62h9.13c6.07,0,9.06,2,9.06,6.38,0,3-1.71,4.49-4.39,5.12v.14c3.24.59,5.3,2.26,5.3,5.68,0,4.6-3.56,7.08-9.8,7.08h-9.3ZM79,61.38c2,0,3-.87,3-2.72S81.05,56,79,56h-2.3v5.41Zm.21,10.31c2.26,0,3.34-1.15,3.34-3.13s-1.11-3.11-3.34-3.11H76.73v6.24Z" fill="#fff"/>
        <g>
          <path d="M90.39,74.45l7.78-22.83h7.25l7.87,22.83V76h-6.48l-1.71-5.51H97.33L95.69,76h-5.3ZM98.69,66h5l-2.51-8.23h-.07Z" fill="#fff"/>
          <path d="M115.87,76V51.62h6.69V71.41h9.59V76Z" fill="#fff"/>
          <path d="M135.11,51.62h9.13c6.06,0,9.06,2,9.06,6.38,0,3-1.71,4.49-4.39,5.12v.14c3.24.59,5.3,2.26,5.3,5.68,0,4.6-3.56,7.08-9.8,7.08h-9.3Zm8.82,9.76c2,0,3-.87,3-2.72S146,56,144,56h-2.3v5.41Zm.21,10.31c2.26,0,3.34-1.15,3.34-3.13s-1.11-3.11-3.34-3.11h-2.48v6.24Z" fill="#fff"/>
          <path d="M166.2,67.06h-2.55v9H157V51.62h9.17c6.48,0,9.76,2.58,9.76,7.46a7,7,0,0,1-3.63,6.51l4.85,8.86V76H170.9Zm-2.62-4.36h2.13c2.47,0,3.55-1.11,3.55-3.27s-1.08-3.28-3.55-3.28h-2.13Z" fill="#fff"/>
          <path d="M180,76V51.62h6.73V76Z" fill="#fff"/>
          <path d="M189.69,64c0-8.12,4.77-12.66,12.79-12.66a15.72,15.72,0,0,1,7.32,1.54v4.81h-2.48a7,7,0,0,0-4.77-1.54c-3.84,0-6,2.1-6,7.74s1.64,8,5.09,8a9.08,9.08,0,0,0,2.78-.35V67.06h-2.89V63h9.24V74.48a20.63,20.63,0,0,1-9.1,1.85C193.76,76.33,189.69,71.87,189.69,64Z" fill="#fff"/>
        </g>
        <path d="M213.42,64c0-8.12,4.78-12.66,12.79-12.66a15.69,15.69,0,0,1,7.32,1.54v4.81h-2.47a7,7,0,0,0-4.78-1.54c-3.83,0-6,2.1-6,7.74s1.64,8,5.09,8a9.2,9.2,0,0,0,2.79-.35V67.06h-2.89V63h9.23V74.48a20.59,20.59,0,0,1-9.09,1.85C217.5,76.33,213.42,71.87,213.42,64Z" fill="#fff"/>
        <g>
          <path d="M236.74,74.45l7.77-22.83h7.25l7.88,22.83V76h-6.48l-1.71-5.51h-7.77L242,76h-5.3ZM245,66h5.05l-2.51-8.23h-.07Z" fill="#fff"/>
          <path d="M262.22,51.62h7.14l8,14.11h.11V51.62H283V76h-6.06l-9.1-16h-.1V76h-5.47Z" fill="#fff"/>
        </g>
        <g>
          <path d="M70.58,93.65V85.23H72.9v8.42Z" fill="#f9ed32"/>
          <path d="M76.31,88.09a3.32,3.32,0,0,1,2.19-.88,1.5,1.5,0,0,1,1.56.9,3.42,3.42,0,0,1,2.27-.9c.93,0,1.69.42,1.69,1.8v4.64H81.85V89.57c0-.53-.21-.7-.71-.7a2.71,2.71,0,0,0-1,.2v4.58H78V89.57c0-.53-.2-.7-.71-.7a3.41,3.41,0,0,0-1,.18v4.6H74.19V87.31H75.7C76,87.31,76.24,87.44,76.31,88.09Z" fill="#f9ed32"/>
          <path d="M88.63,93.05a2.3,2.3,0,0,1-1.82.69,1.83,1.83,0,0,1-2-1.89c0-1.34,1-2,2.49-2a6.14,6.14,0,0,1,1.22.12v-.43c0-.55-.29-.81-1.07-.81a2.73,2.73,0,0,0-1.51.42h-.65V87.72a6.36,6.36,0,0,1,2.58-.51c1.89,0,2.82.63,2.82,2.19v4.25H89.5A.76.76,0,0,1,88.63,93.05Zm-.12-.93V91a5.36,5.36,0,0,0-.71-.06c-.58,0-.94.23-.94.76a.72.72,0,0,0,.81.77A1.3,1.3,0,0,0,88.51,92.12Z" fill="#f9ed32"/>
          <path d="M98,93.17c0,1.67-1.31,2.53-3.5,2.53a6,6,0,0,1-2.63-.48V93.75h.67a3.11,3.11,0,0,0,1.68.44c1.09,0,1.61-.32,1.61-1.08V92.8a2.74,2.74,0,0,1-1.7.54c-1.4,0-2.58-.78-2.58-2.94,0-2.37,1.37-3.19,2.72-3.19a2.22,2.22,0,0,1,1.74.71.82.82,0,0,1,.82-.61H98Zm-2.17-1.53V89.07a1.48,1.48,0,0,0-.88-.24c-.62,0-1.21.25-1.21,1.51S94.07,92,94.83,92A1.7,1.7,0,0,0,95.78,91.64Z" fill="#f9ed32"/>
          <path d="M99.08,85.91a1.12,1.12,0,0,1,2.24,0,1.13,1.13,0,0,1-2.24,0Zm0,7.74V87.31h1.39c.65,0,.76.21.76,1.21v5.13Z" fill="#f9ed32"/>
          <path d="M104.57,88.08a3.62,3.62,0,0,1,2.29-.87c1,0,1.72.39,1.72,1.8v4.64h-2.17V89.57c0-.55-.23-.7-.74-.7a3.26,3.26,0,0,0-1,.21v4.57h-2.17V87.31H104C104.29,87.31,104.49,87.44,104.57,88.08Z" fill="#f9ed32"/>
          <path d="M111.56,91c.1,1.07.61,1.34,1.49,1.34a2.68,2.68,0,0,0,1.61-.47h.68v1.29a4.89,4.89,0,0,1-2.63.63c-2.2,0-3.35-1.23-3.35-3.23a3.09,3.09,0,0,1,3.24-3.31c2,0,3,1.05,3,3.19,0,.26,0,.48,0,.56Zm0-1.14h2c0-1-.36-1.28-.94-1.28S111.69,88.79,111.57,89.82Z" fill="#f9ed32"/>
          <path d="M118.24,87.31h.68V85.69h2.17v1.62h1.18V88.7h-1.18v2.89c0,.57.22.75.78.75h.43v1.25a4.18,4.18,0,0,1-1.24.17c-1.3,0-2.14-.46-2.14-1.84V88.7h-.68Z" fill="#f9ed32"/>
          <path d="M125.27,88a3.59,3.59,0,0,1,2.24-.83c1,0,1.72.39,1.72,1.8v4.64h-2.17V89.57c0-.55-.22-.7-.74-.7a3.26,3.26,0,0,0-1,.21v4.57H123.1V85.23h1.38c.66,0,.79.16.79,1.13Z" fill="#f9ed32"/>
          <path d="M132.21,91c.1,1.07.61,1.34,1.49,1.34a2.68,2.68,0,0,0,1.61-.47H136v1.29a4.89,4.89,0,0,1-2.63.63c-2.2,0-3.35-1.23-3.35-3.23a3.09,3.09,0,0,1,3.24-3.31c2,0,3,1.05,3,3.19,0,.26,0,.48,0,.56Zm0-1.14h2c0-1-.36-1.28-.94-1.28S132.34,88.79,132.22,89.82Z" fill="#f9ed32"/>
          <path d="M141.49,93.15V95.6h-2.17V87.31h1.51c.32,0,.51.12.6.68a2.73,2.73,0,0,1,1.95-.78c1.2,0,2.4.78,2.4,3.1s-1.33,3.28-2.74,3.28A2.42,2.42,0,0,1,141.49,93.15Zm0-4.12v2.91a1.46,1.46,0,0,0,.88.26c.66,0,1.21-.3,1.21-1.7s-.53-1.67-1.18-1.67A2.63,2.63,0,0,0,141.49,89Z" fill="#f9ed32"/>
        </g>
        <path d="M146.3,90.51a3.38,3.38,0,0,1,6.75,0,3.38,3.38,0,0,1-6.75,0Zm4.56,0c0-1.26-.48-1.84-1.18-1.84s-1.19.58-1.19,1.84.48,1.8,1.19,1.8S150.86,91.79,150.86,90.53Z" fill="#f9ed32"/>
        <path d="M153.54,93.23V91.81h.74a2.25,2.25,0,0,0,1.47.47c.57,0,.94-.13.94-.46s-.22-.44-1.1-.56c-1.35-.17-2.11-.64-2.11-2s1.09-2.07,2.68-2.07a4.55,4.55,0,0,1,2.14.43V89h-.69a2.54,2.54,0,0,0-1.39-.38c-.61,0-.83.15-.83.45s.27.4,1.08.5c1.48.18,2.19.62,2.19,2s-.89,2.16-2.83,2.16A4.63,4.63,0,0,1,153.54,93.23Z" fill="#f9ed32"/>
        <g>
          <path d="M159.24,93.23V91.81H160a2.3,2.3,0,0,0,1.47.47c.58,0,.94-.13.94-.46s-.22-.44-1.09-.56c-1.35-.17-2.11-.64-2.11-2s1.08-2.07,2.67-2.07a4.55,4.55,0,0,1,2.14.43V89h-.68a2.55,2.55,0,0,0-1.4-.38c-.6,0-.83.15-.83.45s.28.4,1.08.5c1.49.18,2.2.62,2.2,2s-.89,2.16-2.83,2.16A4.63,4.63,0,0,1,159.24,93.23Z" fill="#f9ed32"/>
          <path d="M165.14,85.91a1.12,1.12,0,0,1,2.24,0,1.13,1.13,0,0,1-2.24,0Zm0,7.74V87.31h1.39c.65,0,.76.21.76,1.21v5.13Z" fill="#f9ed32"/>
          <path d="M170.68,88a2.67,2.67,0,0,1,1.89-.74c1.2,0,2.39.76,2.39,3.14s-1.24,3.4-2.68,3.4a2.47,2.47,0,0,1-1.89-.72c-.21.38-.47.62-.76.62h-1.12V85.23h1.37c.67,0,.8.16.8,1.13Zm0,1.08v3a1.4,1.4,0,0,0,.88.27c.62,0,1.21-.3,1.21-1.78s-.53-1.72-1.19-1.72A2.58,2.58,0,0,0,170.68,89Z" fill="#f9ed32"/>
          <path d="M175.8,85.91a1.12,1.12,0,0,1,2.24,0,1.13,1.13,0,0,1-2.24,0Zm0,7.74V87.31h1.4c.65,0,.76.21.76,1.21v5.13Z" fill="#f9ed32"/>
          <path d="M179.19,93.65V85.23h1.37c.68,0,.8.16.8,1.13v7.29Z" fill="#f9ed32"/>
          <path d="M182.51,85.91a1,1,0,0,1,1.12-1,1,1,0,1,1-1.12,1Zm0,7.74V87.31H184c.65,0,.76.21.76,1.21v5.13Z" fill="#f9ed32"/>
          <path d="M185.45,87.31h.69V85.69h2.17v1.62h1.18V88.7h-1.18v2.89c0,.57.21.75.78.75h.42v1.25a4.18,4.18,0,0,1-1.24.17c-1.3,0-2.13-.46-2.13-1.84V88.7h-.69Z" fill="#f9ed32"/>
          <path d="M190.29,85.91a1,1,0,0,1,1.12-1,1,1,0,1,1-1.12,1Zm0,7.74V87.31h1.4c.65,0,.75.21.75,1.21v5.13Z" fill="#f9ed32"/>
        </g>
        <path d="M195.52,91c.11,1.07.61,1.34,1.49,1.34a2.68,2.68,0,0,0,1.61-.47h.68v1.29a4.87,4.87,0,0,1-2.63.63c-2.2,0-3.34-1.23-3.34-3.23a3.08,3.08,0,0,1,3.24-3.31c2,0,3,1.05,3,3.19,0,.26,0,.48,0,.56Zm0-1.14h2c0-1-.37-1.28-.94-1.28S195.65,88.79,195.53,89.82Z" fill="#f9ed32"/>
        <g>
          <path d="M200.16,93.23V91.81h.73a2.25,2.25,0,0,0,1.47.47c.58,0,.94-.13.94-.46s-.22-.44-1.1-.56c-1.35-.17-2.11-.64-2.11-2s1.09-2.07,2.68-2.07a4.55,4.55,0,0,1,2.14.43V89h-.69a2.48,2.48,0,0,0-1.39-.38c-.6,0-.83.15-.83.45s.27.4,1.08.5c1.48.18,2.19.62,2.19,2s-.89,2.16-2.83,2.16A4.56,4.56,0,0,1,200.16,93.23Z" fill="#f9ed32"/>
          <path d="M208.13,89.31h3V91h-3Z" fill="#f9ed32"/>
          <path d="M214,89.49c0-2.81,1.65-4.37,4.41-4.37a5.39,5.39,0,0,1,2.53.53v1.66h-.85a2.43,2.43,0,0,0-1.65-.53c-1.33,0-2.06.72-2.06,2.67s.57,2.77,1.76,2.77a3.26,3.26,0,0,0,1-.12V90.56h-1v-1.4h3.19v4a7,7,0,0,1-3.14.64C215.44,93.76,214,92.22,214,89.49Z" fill="#f9ed32"/>
          <path d="M224.35,91c.1,1.07.61,1.34,1.49,1.34a2.68,2.68,0,0,0,1.61-.47h.68v1.29a4.89,4.89,0,0,1-2.63.63c-2.2,0-3.35-1.23-3.35-3.23a3.09,3.09,0,0,1,3.24-3.31c2,0,3,1.05,3,3.19,0,.26,0,.48,0,.56Zm0-1.14h2c0-1-.36-1.28-.94-1.28S224.48,88.79,224.36,89.82Z" fill="#f9ed32"/>
          <path d="M228.76,87.31h.69V85.69h2.17v1.62h1.18V88.7h-1.18v2.89c0,.57.21.75.78.75h.42v1.25a4.18,4.18,0,0,1-1.24.17c-1.3,0-2.13-.46-2.13-1.84V88.7h-.69Z" fill="#f9ed32"/>
          <path d="M236,93.65V85.23h2.32v8.42Z" fill="#f9ed32"/>
        </g>
        <path d="M241.76,88.08a3.6,3.6,0,0,1,2.28-.87c1,0,1.73.39,1.73,1.8v4.64H243.6V89.57c0-.55-.23-.7-.75-.7a3.25,3.25,0,0,0-1,.21v4.57h-2.17V87.31h1.5C241.48,87.31,241.67,87.44,241.76,88.08Z" fill="#f9ed32"/>
        <path d="M246.38,87.8v-.49h2.07l1.36,4h0l1.25-4h1.84v.49l-2.17,5.85h-2.14Z" fill="#f9ed32"/>
        <g>
          <path d="M253.05,90.51a3.38,3.38,0,0,1,6.76,0,3.38,3.38,0,0,1-6.76,0Zm4.57,0c0-1.26-.49-1.84-1.18-1.84s-1.2.58-1.2,1.84.49,1.8,1.2,1.8S257.62,91.79,257.62,90.53Z" fill="#f9ed32"/>
          <path d="M260.65,93.65V85.23H262c.68,0,.8.16.8,1.13v7.29Z" fill="#f9ed32"/>
        </g>
        <path d="M263.6,87.8v-.49h2.07l1.36,4h0l1.25-4h1.84v.49L268,93.65h-2.14Z" fill="#f9ed32"/>
        <g>
          <path d="M272.46,91c.11,1.07.62,1.34,1.5,1.34a2.68,2.68,0,0,0,1.61-.47h.67v1.29a4.85,4.85,0,0,1-2.62.63c-2.21,0-3.35-1.23-3.35-3.23a3.09,3.09,0,0,1,3.24-3.31c2,0,3,1.05,3,3.19,0,.26,0,.48,0,.56Zm0-1.14h2c0-1-.36-1.28-.94-1.28S272.59,88.79,272.47,89.82Z" fill="#f9ed32"/>
          <path d="M281.37,93a2.36,2.36,0,0,1-1.83.77c-1.43,0-2.53-1-2.53-3.19,0-2.5,1.38-3.36,2.64-3.36a2.16,2.16,0,0,1,1.65.6V85.23h1.37c.68,0,.8.18.8,1.13v7.29h-1.53C281.65,93.65,281.47,93.52,281.37,93Zm-.07-1V89a1.6,1.6,0,0,0-.85-.21c-.64,0-1.24.3-1.24,1.69s.37,1.81,1.09,1.81A1.42,1.42,0,0,0,281.3,91.94Z" fill="#f9ed32"/>
        </g>
        <g>
          <path d="M45.58,64.31C33.55,60,10.4,51.61,3.32,39.23A22.64,22.64,0,0,1,0,26.59a16.1,16.1,0,0,1,5-10.8A19.66,19.66,0,0,1,8.87,13c6.42-3.66,11.88-3.2,16.63-.88C29,13.8,34.78,18.27,37,23.21,38.24,8.66,53-3.25,66.09.8c13.67,4.23,15.32,18.88,12,29C75.72,37.23,65.84,48.45,57.48,54c-9,6-8.14,14-8.62,11.13C48.62,54.34,70.61,48,75.09,27.88c8-35.8-37.32-33.11-37.57-1.12C31.5,10.39,5.91,5.69,3.09,28,0,49.48,55,66.18,45.58,64.31" fill="#f9ed32"/>
          <path d="M45.58,64.31C33.55,60,10.4,51.61,3.32,39.23a25.67,25.67,0,0,1-2.79-7,25.77,25.77,0,0,0,2.7,6.59c7.08,12.38,30.23,20.72,42.26,25.08L46,64c.91.44.88.55-.45.29M78.82,14.39a28.55,28.55,0,0,1-.73,15.38C75.72,37.23,65.85,48.45,57.48,54c-8.79,5.86-8.18,13.62-8.58,11.33.27.51.49-6.39,8.49-11.71C65.75,48.07,75.63,36.85,78,29.39a28.64,28.64,0,0,0,.82-15m-3.54-.56C69.94-6.35,37.73-.2,37.52,26.76,31.5,10.39,5.91,5.69,3.09,28a12.58,12.58,0,0,0,.22,4.7A12.82,12.82,0,0,1,3,27.57C5.82,5.31,31.41,10,37.43,26.38,37.64-.75,70.24-6.81,75.28,13.83" fill="#f9ed32"/>
          <path d="M.62,32.64A19.76,19.76,0,0,1,0,26.59a16.1,16.1,0,0,1,5-10.8A19.66,19.66,0,0,1,8.87,13c6.42-3.66,11.88-3.2,16.63-.87C29,13.8,34.78,18.27,37,23.21,38.24,8.66,53-3.25,66.08.8a18.21,18.21,0,0,1,12.84,14A18.15,18.15,0,0,0,66.18,1.19C53-2.87,38.33,9,37.1,23.6c-2.23-5-8-9.42-11.51-11.14C20.84,10.13,15.38,9.67,9,13.34a19.33,19.33,0,0,0-3.82,2.83A16.13,16.13,0,0,0,.13,27a19.37,19.37,0,0,0,.49,5.67M49,65.74a3,3,0,0,1-.13-.59C48.62,54.34,70.61,48,75.09,27.88a30.3,30.3,0,0,0,.28-13.67c1,3.76,1.06,8.44-.19,14.06C70.71,48.38,48.71,54.72,49,65.53c0,.08,0,.15,0,.21M3.4,33C8.25,51.56,51.87,65.31,46.12,64.41,41.09,62,7.18,49.3,3.4,33" fill="#f9ed32"/>
          <path d="M48.41,64.4a2.49,2.49,0,0,1-.13-.57c-.23-10.46,21.06-16.6,25.4-36.07A29.4,29.4,0,0,0,74,14.52a28.91,28.91,0,0,1-.19,13.61C69.44,47.6,48.14,53.74,48.38,64.21l0,.19M4.28,32.75C9,50.67,51.2,64,45.64,63.11,40.77,60.75,7.93,48.49,4.28,32.75" fill="#f9ed32"/>
          <path d="M36.84,61.08C25.75,58.16,9.19,48.27,5.74,43c-.43-.66-3-1.9,1.11,2.06C14,51.85,22.25,57.09,36.67,61.94c2.13.72,3-.12.17-.86" fill="#f9ed32" fill-rule="evenodd"/>
          <path d="M76.73,34C73.66,40,66.16,48.4,61.69,51.51c-2.73,1.9,3.77.28,9.39-5.16,2.75-2.66,8.71-18.47,5.65-12.4" fill="#f9ed32" fill-rule="evenodd"/>
          <path d="M3.46,29.31c-.07-9,7-19,20.29-15.46,1.76.47.79.86-1.41.45-2.52-.47-4.73.5-9.37,2.33-5,2-8.72,7.1-8.66,14.92.25,4.71-.74.44-.85-2.24" fill="#f9ed32" fill-rule="evenodd"/>
          <path d="M71.6,7.75a16.51,16.51,0,0,0-14-5.1A19.69,19.69,0,0,0,43.9,10.71c-1,1.51.67,1.06,2.11-.69,1.66-2,3.39-3.89,8.38-5.62,3.86-1.34,8.7-1.76,13.08.91,1.74,1.06,3.47,3.13,5,4.76,3.19,3.6.73-.17-.91-2.32" fill="#f9ed32" fill-rule="evenodd"/>
          <path d="M103.88,21.8a12.86,12.86,0,0,1,4.82.67,2.74,2.74,0,0,1,1.8,1.84,3.89,3.89,0,0,1-.57,2.71,18.83,18.83,0,0,1-2.3,3.31A47.78,47.78,0,0,1,104.25,34q-1.92,1.86-3.81,3.62c-1.25,1.18-2.44,2.29-3.54,3.34a29.86,29.86,0,0,0-2.63,2.79,4.9,4.9,0,0,0-1.12,2c-.08.5.29.76,1.12.8A5.17,5.17,0,0,0,96.39,46a23,23,0,0,0,2.76-1.34c1-.55,2-1.16,3-1.81s1.9-1.28,2.71-1.86l2-1.5c.56-.42.87-.66.94-.73l-.78.73q-.72.67-1.89,1.65c-.77.66-1.64,1.37-2.61,2.15s-2,1.49-3,2.14a22.61,22.61,0,0,1-2.95,1.63,6.26,6.26,0,0,1-2.51.65,4.12,4.12,0,0,1-3-.85,2.67,2.67,0,0,1-.67-2.28,9.11,9.11,0,0,1,1.14-3.26,28.13,28.13,0,0,1,2.48-3.8q-2.28,2.28-4.53,4.27a49.4,49.4,0,0,1-4.24,3.39,18.05,18.05,0,0,1-3.62,2A3.87,3.87,0,0,1,79,47.5a2.53,2.53,0,0,1-1.86-1.83,5.21,5.21,0,0,1,.46-3,20.69,20.69,0,0,1,2.17-3.8Q81.24,36.8,83,34.65t3.57-4.24c1.23-1.39,2.33-2.71,3.31-3.93a37.54,37.54,0,0,0,2.38-3.23,4.13,4.13,0,0,0,.86-2.17c1.93.31,3.18.88,3.75,1.7a3.36,3.36,0,0,1,.33,3A12.39,12.39,0,0,1,95,29.66,52.3,52.3,0,0,1,91.4,34c-1.37,1.45-2.78,2.87-4.25,4.24s-2.76,2.63-3.87,3.73a27.44,27.44,0,0,0-2.54,2.76c-.57.75-.66,1.19-.28,1.32s1.17,0,2.17-.51a25.85,25.85,0,0,0,3.44-2.38c1.29-1,2.69-2.24,4.19-3.62s3-2.83,4.47-4.35,2.9-3,4.27-4.52,2.56-2.87,3.59-4.11a15.59,15.59,0,0,0,2.07-3.26c.34-.83.09-1.31-.78-1.45" fill="#f9ed32"/>
          <path d="M135.7,28a4.29,4.29,0,0,1-3.62,2.43A1.58,1.58,0,0,1,130.57,28a14.56,14.56,0,0,0,2.24-2.3c.49-.66.5-1.18.05-1.56s-1.11-.14-2.29.42a32.82,32.82,0,0,0-4.24,2.5c-1.65,1.11-3.42,2.42-5.29,3.93s-3.67,3.07-5.37,4.66c-.9,1-1.8,2-2.71,2.92s-1.71,1.86-2.44,2.76a13.3,13.3,0,0,0-2.3,4,3.74,3.74,0,0,0,.73,3.39,5.93,5.93,0,0,1-2.24-3,7.17,7.17,0,0,1,0-3.54,15.49,15.49,0,0,1,1.46-3.8,40.91,40.91,0,0,1,2.34-3.86q1.31-1.91,2.66-3.7c.9-1.2,1.68-2.32,2.32-3.36a13.13,13.13,0,0,0,1.35-2.78,2,2,0,0,0-.23-2c.94-.21,1.87-.39,2.81-.55a8.89,8.89,0,0,1,2.48-.1,2.16,2.16,0,0,1,1.53.75c.32.42.29,1.09-.08,2A16.65,16.65,0,0,1,121,28.41a67.1,67.1,0,0,1-5.05,5.7c1.66-1.6,3.43-3.18,5.28-4.74a54.57,54.57,0,0,1,5.42-4,20.51,20.51,0,0,1,4.87-2.39,4.26,4.26,0,0,1,3.65.18,2.44,2.44,0,0,1,1.3,2.06,6.11,6.11,0,0,1-.83,2.78Z" fill="#f9ed32"/>
        </g>
      </g>
    </g>
  </g>
</svg>
